{"title":"The.Hangover.Part.III.2013.TS.OWN.SOURCE.XviD-YanKeeS","uid":8542314,"size":1463650125,"categoryP":"video","categoryS":"movies","magnet":"?xt=urn:btih:317cca81fb6373eff17f4e3f1758158073422382&amp;dn=The.Hangover.Part.III.2013.TS.OWN.SOURCE.XviD-YanKeeS&amp;tr=udp%3A%2F%2Ftracker.openbittorrent.com%3A80&amp;tr=udp%3A%2F%2Fopen.demonii.com%3A1337&amp;tr=udp%3A%2F%2Ftracker.coppersurfer.tk%3A6969&amp;tr=udp%3A%2F%2Fexodus.desync.com%3A6969","seeders":1,"leechers":0,"uploader":"xxxlavalxxx","files":-1,"time":1370430997,"description":"\n\n &lt;a href=&quot;\nhttp://www.imdb.com/title/tt1951261/&quot; rel=&quot;nofollow&quot; target=&quot;_NEW&quot;&gt;\nhttp://www.imdb.com/title/tt1951261/&lt;/a&gt;\n\n\nWhen one of their own is kidnapped by an angry gangster, the Wolf Pack must track down Mr. Chow, who has escaped from prison and is on the lam. \n\n\n\nDirector:\n Todd Phillips \n\nWriters:\n Todd Phillips, Craig Mazin\n\nStars:\n Bradley Cooper, Ed Helms, Zach Galifianakis \n\nGenres:\n  Comedy \n\nCountry:\n USA \n\nLanguage:\n English \n\n\n\n\nSource VIDEO: YanKeeS 1080p HD\n Source AUDIO: SUFFiCE (Thx)\n\n General\n Complete name                            : The.Hangover.Part.III.2013.TS.OWN.SOURCE.XviD-YanKeeS.avi\n Format                                   : AVI\n File size                                : 1.36 GiB\n Duration                                 : 1h 35mn\n Overall bit rate                         : 2 053 Kbps\n Movie name                               : YanKeeS\n\n Video\n ID                                       : 0\n Format                                   : MPEG-4 Visual\n Format profile                           : Advanced Simple@L5\n Format settings, BVOP                    : No\n Format settings, QPel                    : No\n Format settings, GMC                     : No warppoints\n Format settings, Matrix                  : Default (H.263)\n Codec ID                                 : XVID\n Codec ID/Hint                            : XviD\n Duration                                 : 1h 35mn\n Bit rate                                 : 1 915 Kbps\n Width                                    : 720 pixels\n Height                                   : 304 pixels\n Display aspect ratio                     : 2.35:1\n Frame rate                               : 29.970 fps\n Color space                              : YUV\n Chroma subsampling                       : 4:2:0\n Bit depth                                : 8 bits\n Scan type                                : Progressive\n Compression mode                         : Lossy\n Bits/(Pixel*Frame)                       : 0.292\n Stream size                              : 1.27 GiB (93%)\n Writing library                          : XviD 1.2.1 (UTC 2008-12-04)\n\n Audio\n ID                                       : 1\n Format                                   : MPEG Audio\n Format version                           : Version 1\n Format profile                           : Layer 3\n Mode                                     : Joint stereo\n Mode extension                           : MS Stereo\n Codec ID                                 : 55\n Codec ID/Hint                            : MP3\n Duration                                 : 1h 35mn\n Bit rate mode                            : Constant\n Bit rate                                 : 128 Kbps\n Channel(s)                               : 2 channels\n Sampling rate                            : 48.0 KHz\n Compression mode                         : Lossy\n Stream size                              : 87.0 MiB (6%)\n Alignment                                : Aligned on interleaves\n Interleave, duration                     : 24 ms (0.72 video frame)\n Interleave, preload duration             : 192 ms\n Title                                    : ENG\n\n\n\n\n    &lt;a href=&quot;\thttp://addpix.net/viewer.php?file=67672288124700295439.jpg&quot; rel=&quot;nofollow&quot; target=&quot;_NEW&quot;&gt;\thttp://addpix.net/viewer.php?file=67672288124700295439.jpg&lt;/a&gt;\n    &lt;a href=&quot;\thttp://addpix.net/viewer.php?file=55987330651181712735.jpg&quot; rel=&quot;nofollow&quot; target=&quot;_NEW&quot;&gt;\thttp://addpix.net/viewer.php?file=55987330651181712735.jpg&lt;/a&gt;\n    &lt;a href=&quot;\thttp://addpix.net/viewer.php?file=33164091443466345561.jpg&quot; rel=&quot;nofollow&quot; target=&quot;_NEW&quot;&gt;\thttp://addpix.net/viewer.php?file=33164091443466345561.jpg&lt;/a&gt;\n    &lt;a href=&quot;\thttp://addpix.net/viewer.php?file=31632840306862658630.jpg&quot; rel=&quot;nofollow&quot; target=&quot;_NEW&quot;&gt;\thttp://addpix.net/viewer.php?file=31632840306862658630.jpg&lt;/a&gt;","torrent":{"xt":"urn:btih:317cca81fb6373eff17f4e3f1758158073422382","amp;dn":"The.Hangover.Part.III.2013.TS.OWN.SOURCE.XviD-YanKeeS","amp;tr":["udp%3A%2F%2Ftracker.openbittorrent.com%3A80","udp%3A%2F%2Fopen.demonii.com%3A1337","udp%3A%2F%2Ftracker.coppersurfer.tk%3A6969","udp%3A%2F%2Fexodus.desync.com%3A6969"],"infoHash":"317cca81fb6373eff17f4e3f1758158073422382","infoHashBuffer":{"type":"Buffer","data":[49,124,202,129,251,99,115,239,241,127,78,63,23,88,21,128,115,66,35,130]},"announce":[],"urlList":[]}}